<?xml version="1.0" encoding="utf-8"?>
<!-- Generator: Adobe Illustrator 27.5.0, SVG Export Plug-In . SVG Version: 6.00 Build 0)  -->
<svg version="1.1" xmlns="http://www.w3.org/2000/svg" xmlns:xlink="http://www.w3.org/1999/xlink" x="0px" y="0px"
	 viewBox="0 0 500 500" style="enable-background:new 0 0 500 500;" xml:space="preserve">
<g id="Floor">
	<ellipse style="fill:#F5F5F5;" cx="250" cy="354.306" rx="226.103" ry="130.541"/>
</g>
<g id="Shadows">
	<path style="fill:#E0E0E0;" d="M316.73,296.595L126.954,406.365c-5.532,3.194-15.194,2.793-21.582-0.895l-25.109-14.497
		c-6.388-3.688-7.081-9.266-1.55-12.46L268.49,268.744c5.532-3.194,15.194-2.793,21.582,0.895l25.109,14.497
		C321.568,287.823,322.262,293.402,316.73,296.595z"/>
	<ellipse style="fill:#E0E0E0;" cx="384.318" cy="399.956" rx="56.682" ry="32.725"/>
	<path style="fill:#E0E0E0;" d="M65.025,355.379c7.051,4.071,7.051,10.671,0,14.742c-7.051,4.071-18.482,4.071-25.533,0
		c-7.051-4.071-7.051-10.671,0-14.742C46.542,351.308,57.974,351.308,65.025,355.379z"/>
	<path style="fill:#E0E0E0;" d="M252.671,393.083l-101.05,57.765c-4.529,2.615-12.44,2.287-17.669-0.733l-11.885-6.862
		c-5.229-3.019-5.798-7.587-1.269-10.201l101.05-57.765c4.529-2.615,12.44-2.287,17.669,0.733l11.885,6.862
		C256.632,385.901,257.2,390.468,252.671,393.083z"/>
	<path style="fill:#E0E0E0;" d="M246.914,417.029l-40.531,23.497c-4.529,2.615-12.44,2.287-17.669-0.732l-11.885-6.862
		c-5.23-3.019-5.797-7.586-1.269-10.201l40.531-23.497c4.529-2.615,12.44-2.287,17.669,0.732l11.885,6.862
		C250.875,409.847,251.443,414.414,246.914,417.029z"/>
</g>
<g id="Plant">
	<g>
		<g>
			<path style="fill:#BA68C8;" d="M51.096,330.158c0,0,13.614-13.295,5.866-35.565c-4.343-12.482-18.73-21.647-26.925-22.509
				c0,0,4.446,5.122,6.403,10.797l10.32,6.861l-9.486-2.97l2.02,8.12c0,0,8.823,5.335,10.13,6.499l-9.511-2.486
				C39.913,298.904,40.642,321.893,51.096,330.158z"/>
			<path style="opacity:0.4;" d="M51.096,330.158c0,0,13.614-13.295,5.866-35.565c-4.343-12.482-18.73-21.647-26.925-22.509
				c0,0,4.446,5.122,6.403,10.797l10.32,6.861l-9.486-2.97l2.02,8.12c0,0,8.823,5.335,10.13,6.499l-9.511-2.486
				C39.913,298.904,40.642,321.893,51.096,330.158z"/>
			<path style="fill:#FFFFFF;" d="M51.096,330.158c0,0,7.05-27.822-3.38-44.045C47.716,286.112,59.942,300.429,51.096,330.158z"/>
		</g>
		<path style="fill:#37474F;" d="M35.515,333.924l16.658-0.209v-0.002l0.085,0.001l0.085-0.001v0.002l16.658,0.209
			c0,0,0.185,20.521-6.135,28.871h0c-1.745,2.22-5.837,3.778-10.607,3.778c-4.778,0-8.875-1.564-10.615-3.789
			C35.331,354.427,35.515,333.924,35.515,333.924z"/>
		<ellipse style="fill:#455A64;" cx="52.258" cy="333.924" rx="16.743" ry="8.989"/>
		<g>
			<path style="fill:#263238;" d="M52.258,331.54c-5.76,0-10.639,1.848-12.357,4.406c-0.427-0.637-0.667-1.315-0.667-2.022
				c0-3.55,5.831-6.428,13.024-6.428c7.193,0,13.024,2.878,13.024,6.428c0,0.707-0.24,1.386-0.667,2.022
				C62.897,333.388,58.018,331.54,52.258,331.54z"/>
			<g>
				<path style="fill:#E0E0E0;" d="M52.258,331.54c5.76,0,10.639,1.848,12.357,4.406c-1.718,2.559-6.597,4.406-12.357,4.406
					c-5.76,0-10.639-1.848-12.357-4.406C41.619,333.388,46.498,331.54,52.258,331.54z"/>
			</g>
		</g>
		<g>
			<path style="fill:#BA68C8;" d="M52.053,337.057c0,0,6.452-0.251,11.987-8.82c2.283-3.534,3.383-5.391,3.383-5.391l-8.99-0.67
				l10.072-2.518l4.759-7.281l-8.365-0.621c0,0,6.23-2.182,10.678-2.211c0,0,7.714-13.626,9.97-15.568c0,0-17.79,0.147-30.47,15.139
				C42.398,324.11,50.172,337.44,52.053,337.057z"/>
			<path style="fill:#FFFFFF;" d="M52.053,337.057c0,0-4.036-24.307,21.719-38.929C73.772,298.128,47.043,310.968,52.053,337.057z"
				/>
		</g>
		<g>
			<path style="fill:#BA68C8;" d="M52.053,337.057c0,0-5.845,0.381-11.646-6.829c-2.392-2.974-3.56-4.545-3.56-4.545l8.048-1.451
				l-9.324-1.323l-4.979-6.121l7.488-1.348c0,0-5.826-1.382-9.842-0.989c0,0-8.242-11.568-10.461-13.107
				c0,0,16.064-1.542,28.916,10.79C59.546,324.466,53.787,337.226,52.053,337.057z"/>
			<path style="opacity:0.2;" d="M52.053,337.057c0,0-5.845,0.381-11.646-6.829c-2.392-2.974-3.56-4.545-3.56-4.545l8.048-1.451
				l-9.324-1.323l-4.979-6.121l7.488-1.348c0,0-5.826-1.382-9.842-0.989c0,0-8.242-11.568-10.461-13.107
				c0,0,16.064-1.542,28.916,10.79C59.546,324.466,53.787,337.226,52.053,337.057z"/>
			<path style="fill:#FFFFFF;" d="M52.053,337.057c0,0,1.353-22.311-23.26-33.078C28.793,303.979,54.118,313.047,52.053,337.057z"/>
		</g>
	</g>
</g>
<g id="Cable">
	<g>
		<path style="fill:#BA68C8;" d="M242.034,354.185c-0.598,0-1.179-0.31-1.5-0.865c-0.478-0.828-0.194-1.885,0.633-2.363
			l71.688-41.073c2.264-1.308,3.629-3.649,3.65-6.262c0.022-2.614-1.303-4.976-3.544-6.321l-5.677-3.406
			c-6.166-3.7-13.866-3.765-20.093-0.168l-6.179,3.567c-4.144,2.395-10.638,2.395-14.783,0c-2.261-1.305-3.557-3.225-3.557-5.266
			c0-2.042,1.296-3.961,3.557-5.267l10.434-6.025c3.613-2.086,5.86-5.973,5.865-10.146l0.034-35.393
			c0.001-0.955,0.775-1.729,1.73-1.729c0.001,0,0.001,0,0.002,0c0.956,0.001,1.729,0.776,1.728,1.732l-0.034,35.393
			c-0.006,5.404-2.916,10.438-7.595,13.139l-10.434,6.025c-1.161,0.67-1.827,1.498-1.827,2.271c0,0.771,0.666,1.599,1.827,2.27
			c3.069,1.771,8.254,1.771,11.322,0l6.179-3.567c7.315-4.224,16.359-4.149,23.603,0.197l5.677,3.406
			c3.303,1.981,5.256,5.464,5.224,9.316c-0.032,3.853-2.043,7.303-5.38,9.23l-71.688,41.073
			C242.625,354.111,242.327,354.185,242.034,354.185z"/>
		<path style="opacity:0.2;" d="M242.034,354.185c-0.598,0-1.179-0.31-1.5-0.865c-0.478-0.828-0.194-1.885,0.633-2.363
			l71.688-41.073c2.264-1.308,3.629-3.649,3.65-6.262c0.022-2.614-1.303-4.976-3.544-6.321l-5.677-3.406
			c-6.166-3.7-13.866-3.765-20.093-0.168l-6.179,3.567c-4.144,2.395-10.638,2.395-14.783,0c-2.261-1.305-3.557-3.225-3.557-5.266
			c0-2.042,1.296-3.961,3.557-5.267l10.434-6.025c3.613-2.086,5.86-5.973,5.865-10.146l0.034-35.393
			c0.001-0.955,0.775-1.729,1.73-1.729c0.001,0,0.001,0,0.002,0c0.956,0.001,1.729,0.776,1.728,1.732l-0.034,35.393
			c-0.006,5.404-2.916,10.438-7.595,13.139l-10.434,6.025c-1.161,0.67-1.827,1.498-1.827,2.271c0,0.771,0.666,1.599,1.827,2.27
			c3.069,1.771,8.254,1.771,11.322,0l6.179-3.567c7.315-4.224,16.359-4.149,23.603,0.197l5.677,3.406
			c3.303,1.981,5.256,5.464,5.224,9.316c-0.032,3.853-2.043,7.303-5.38,9.23l-71.688,41.073
			C242.625,354.111,242.327,354.185,242.034,354.185z"/>
		<path style="fill:#BA68C8;" d="M284.202,249.184L284.202,249.184c-2.368,0-4.287-1.919-4.287-4.287v-12.004h8.574v12.004
			C288.488,247.264,286.569,249.184,284.202,249.184z"/>
		<path style="opacity:0.4;" d="M284.202,249.184L284.202,249.184c-2.368,0-4.287-1.919-4.287-4.287v-12.004h8.574v12.004
			C288.488,247.264,286.569,249.184,284.202,249.184z"/>
	</g>
</g>
<g id="Device">
	<g>
		<g>
			<path style="fill:#263238;" d="M260.049,308.927l-29.813,16.969c-1.984,1.134-4.168,1.783-6.373,1.949
				c-3.028,0.235-6.117-0.429-8.841-1.998l-19.105-11.038l-2.178-1.258c-4.611-2.668-7.451-7.59-7.451-12.912v-55.008l44.736-25.465
				v56.183c0,4.603,2.454,8.848,6.435,11.149l22.617,13.064C263.298,302.422,263.284,307.081,260.049,308.927z"/>
			<path style="fill:#37474F;" d="M223.866,327.845c2.204-0.166,4.387-0.816,6.37-1.949l29.813-16.969
				c3.235-1.846,3.249-6.505,0.028-8.364l-15.443-8.92h-20.767V327.845z"/>
			<path style="fill:#37474F;" d="M259.523,296.873l0.824,0.658c1.35,1.077,2.137,2.709,2.137,4.436v2.783h-2.987L259.523,296.873z"
				/>
			<path style="fill:#455A64;" d="M234.46,224.417v50.55c0,4.452,2.375,8.567,6.23,10.793l18.832,11.113
				c3.121,1.802,3.106,6.312-0.026,8.095l-2.141,1.219l-26.723,15.208c-4.568,2.599-10.171,2.582-14.722-0.047l-18.531-10.939
				c-3.855-2.227-6.23-6.341-6.23-10.793v-50.55L234.46,224.417z"/>
			<path style="fill:#263238;" d="M234.46,274.967v-50.55l-43.311,24.649v50.551c0,4.452,2.375,8.566,6.23,10.793l42.669-25.048
				C236.574,283.063,234.46,279.166,234.46,274.967z"/>
		</g>
		<g>
			<path style="fill:#263238;" d="M97.413,337.259l-4.923,2.848v8.996c-3.164,0-6.26-0.849-8.979-2.47l-0.386-0.232
				c-2.307-1.372-3.902-3.619-4.494-6.175c-0.163-0.532-0.266-1.098-0.266-1.698v-12.264L97.413,337.259z"/>
			<g>
				<path style="fill:#37474F;" d="M311.325,6.556l-0.389-0.232c-2.715-1.617-5.818-2.471-8.978-2.471v0.002
					c-0.96-0.013-1.948,0.223-2.878,0.759L86.948,126.598c-5.31,3.066-8.581,8.731-8.581,14.863v184.805l19.046,10.993
					l201.516-115.85c5.31-3.066,8.581-8.732,8.581-14.863V14.923h8.571C316.081,11.491,314.274,8.312,311.325,6.556z"/>
			</g>
			<path style="fill:#263238;" d="M80.193,133.759c-1.175,2.35-1.827,4.983-1.827,7.701v184.805l19.047,10.994l7.127-4.116V148.836
				L80.193,133.759z"/>
			<path style="fill:#37474F;" d="M86.938,331.213v12.263c0,4.326,4.683,7.03,8.43,4.867L307.5,226.36
				c5.31-3.065,8.581-8.731,8.581-14.863v-12.579L86.938,331.213z"/>
			<g>
				<path style="fill:#455A64;" d="M316.081,14.431c0-4.326-4.683-7.03-8.429-4.867L95.519,131.549
					c-5.31,3.066-8.581,8.731-8.581,14.863v184.802l229.143-132.296"/>
			</g>
			<path style="fill:#BA68C8;" d="M303.786,22.941c0.039,0,0.033,0-0.041-0.005v0.005c-0.315,0.001-1.726,0.031-2.793,0.647
				l-199.37,114.616c-4.689,2.707-7.577,7.71-7.577,13.125v157.46c0,0.716,0.148,1.38,0.406,1.976c-0.001,0-0.002,0-0.003,0
				c1.117,2.587,4.352,3.874,7.041,2.321l199.37-114.615c4.689-2.707,7.577-7.71,7.577-13.124V27.886
				C308.395,25.124,306.233,23.122,303.786,22.941z"/>
			<path style="opacity:0.5;fill:#FFFFFF;" d="M303.786,22.941c0.039,0,0.033,0-0.041-0.005v0.005
				c-0.315,0.001-1.726,0.031-2.793,0.647l-199.37,114.616c-4.689,2.707-7.577,7.71-7.577,13.125v157.46
				c0,0.716,0.148,1.38,0.406,1.976c-0.001,0-0.002,0-0.003,0c1.117,2.587,4.352,3.874,7.041,2.321l199.37-114.615
				c4.689-2.707,7.577-7.71,7.577-13.124V27.886C308.395,25.124,306.233,23.122,303.786,22.941z"/>
		</g>
	</g>
</g>
<g id="Screen">
	<g>
		<g>
			<g>
				<g>
					<path style="fill:#BA68C8;" d="M115.28,142.318L306.017,32.195c2.188-1.263,4.157-1.169,5.551-0.01l6.603,4.566l-4.503,5.568
						v153.815c0,5.634-3.426,12.18-7.651,14.62L117.177,319.78l-0.351,6l-6.957-4.768c-1.385-1.047-2.241-3.103-2.241-5.92V156.937
						C107.628,151.303,111.054,144.758,115.28,142.318z"/>
					<path style="opacity:0.2;fill:#FFFFFF;" d="M115.28,142.318L306.017,32.195c2.188-1.263,4.157-1.169,5.551-0.01l6.603,4.566
						l-4.503,5.568v153.815c0,5.634-3.426,12.18-7.651,14.62L117.177,319.78l-0.351,6l-6.957-4.768
						c-1.385-1.047-2.241-3.103-2.241-5.92V156.937C107.628,151.303,111.054,144.758,115.28,142.318z"/>
					<g>
						<path style="fill:#BA68C8;" d="M114.125,319.563V161.409c0-3.029,0.996-6.317,2.568-9.094l-6.814-3.904
							c-1.39,2.65-2.251,5.702-2.251,8.526v158.154c0,2.817,0.857,4.873,2.241,5.92l6.408,4.392
							C114.947,324.336,114.125,322.316,114.125,319.563z"/>
						<path style="opacity:0.3;fill:#BA68C8;" d="M116.724,325.71l0.102,0.07l0-0.005
							C116.791,325.755,116.759,325.731,116.724,325.71z"/>
					</g>
					<path style="fill:#BA68C8;" d="M121.776,325.347l190.738-110.122c4.226-2.44,7.651-8.985,7.651-14.619V42.451
						c0-5.634-3.426-8.224-7.651-5.784L121.776,146.789c-4.226,2.44-7.651,8.985-7.651,14.619v158.154
						C114.125,325.197,117.551,327.787,121.776,325.347z"/>
					<path style="fill:#BA68C8;" d="M121.776,325.347l190.738-110.122c4.226-2.44,7.651-8.985,7.651-14.619V42.451
						c0-5.634-3.426-8.224-7.651-5.784L121.776,146.789c-4.226,2.44-7.651,8.985-7.651,14.619v158.154
						C114.125,325.197,117.551,327.787,121.776,325.347z"/>
					<path style="opacity:0.7;fill:#FFFFFF;" d="M121.776,325.347l190.738-110.122c4.226-2.44,7.651-8.985,7.651-14.619V42.451
						c0-5.634-3.426-8.224-7.651-5.784L121.776,146.789c-4.226,2.44-7.651,8.985-7.651,14.619v158.154
						C114.125,325.197,117.551,327.787,121.776,325.347z"/>
					<path style="fill:#BA68C8;" d="M121.777,146.789L312.514,36.667c4.226-2.44,7.651,0.15,7.651,5.784v7.732L114.125,169.14
						v-7.732C114.125,155.774,117.551,149.229,121.777,146.789z"/>
					<path style="opacity:0.5;fill:#FFFFFF;" d="M121.777,146.789L312.514,36.667c4.226-2.44,7.651,0.15,7.651,5.784v7.732
						L114.125,169.14v-7.732C114.125,155.774,117.551,149.229,121.777,146.789z"/>
					<path style="fill:#BA68C8;" d="M315.552,36.436c2.385,0,3.927,2.361,3.927,6.016v158.154c0,5.407-3.278,11.698-7.308,14.025
						L121.433,324.752c-0.949,0.548-1.856,0.826-2.694,0.826c-2.385,0-3.927-2.361-3.927-6.016V161.409
						c0-5.407,3.279-11.698,7.308-14.025L312.857,37.262C313.807,36.714,314.714,36.436,315.552,36.436 M315.552,35.749
						c-0.931,0-1.958,0.295-3.038,0.918L121.776,146.789c-4.226,2.44-7.651,8.985-7.651,14.619v158.154
						c0,4.195,1.899,6.703,4.614,6.703c0.931,0,1.958-0.295,3.038-0.918l190.738-110.122c4.226-2.44,7.651-8.985,7.651-14.619
						V42.451C320.165,38.256,318.266,35.749,315.552,35.749L315.552,35.749z"/>
				</g>
			</g>
			<g>
				<path style="fill:#FFFFFF;" d="M130.361,151.603c0,1.826-1.282,4.046-2.863,4.959c-1.581,0.913-2.863,0.173-2.863-1.653
					s1.282-4.046,2.863-4.959C129.079,149.036,130.361,149.777,130.361,151.603z"/>
				<path style="fill:#FFFFFF;" d="M140.46,145.772c0,1.826-1.282,4.046-2.863,4.959c-1.581,0.913-2.863,0.173-2.863-1.653
					s1.282-4.046,2.863-4.959C139.178,143.206,140.46,143.946,140.46,145.772z"/>
				<path style="fill:#FFFFFF;" d="M150.558,139.942c0,1.826-1.282,4.046-2.863,4.959c-1.581,0.913-2.863,0.173-2.863-1.653
					s1.282-4.046,2.863-4.959C149.277,137.376,150.558,138.116,150.558,139.942z"/>
			</g>
		</g>
		<g>
			<g>
				<g>
					<g>
						<g>
							<path style="fill:#FFFFFF;" d="M153.815,271.611c0.005,0,0.004,0-0.006-0.001v0.001c-0.044,0-0.24,0.004-0.389,0.09
								l-27.762,15.96c-0.653,0.377-1.055,1.074-1.055,1.828v21.926c0,0.1,0.021,0.192,0.057,0.275c0,0,0,0-0.001,0
								c0.156,0.36,0.606,0.539,0.98,0.323l27.762-15.96c0.653-0.377,1.055-1.074,1.055-1.828v-21.926
								C154.457,271.915,154.156,271.636,153.815,271.611z"/>
						</g>
					</g>
				</g>
				<g>
					<polygon style="fill:#BA68C8;" points="150.989,293.521 130.047,305.611 136.234,289.514 140.518,294.602 144.899,288.364 
											"/>
					<polygon style="opacity:0.4;fill:#FFFFFF;" points="150.989,293.521 130.047,305.611 136.234,289.514 140.518,294.602 
						144.899,288.364 					"/>
					<path style="fill:#BA68C8;" d="M143.725,283.478c0,1.218-0.855,2.7-1.91,3.309c-1.055,0.609-1.91,0.115-1.91-1.103
						s0.855-2.7,1.91-3.309C142.869,281.766,143.725,282.26,143.725,283.478z"/>
				</g>
			</g>
			<g>
				<g>
					<g>
						<g>
							<path style="fill:#FFFFFF;" d="M191.075,250.05c0.005,0,0.005,0-0.006-0.001v0.001c-0.044,0-0.24,0.004-0.389,0.09
								l-27.762,15.96c-0.653,0.377-1.055,1.074-1.055,1.828v21.926c0,0.1,0.021,0.192,0.056,0.275c0,0,0,0,0,0
								c0.156,0.36,0.606,0.539,0.98,0.323l27.762-15.96c0.653-0.377,1.055-1.074,1.055-1.828v-21.926
								C191.717,250.354,191.416,250.076,191.075,250.05z"/>
						</g>
					</g>
				</g>
				<g>
					<polygon style="fill:#BA68C8;" points="188.249,271.96 167.307,284.051 173.494,267.953 177.778,273.041 182.159,266.803 					
						"/>
					<polygon style="opacity:0.4;fill:#FFFFFF;" points="188.249,271.96 167.307,284.051 173.494,267.953 177.778,273.041 
						182.159,266.803 					"/>
					<path style="fill:#BA68C8;" d="M180.985,261.918c0,1.218-0.855,2.699-1.91,3.309c-1.055,0.609-1.91,0.115-1.91-1.103
						s0.855-2.699,1.91-3.309C180.129,260.206,180.985,260.699,180.985,261.918z"/>
				</g>
			</g>
			<g>
				<g>
					<g>
						<g>
							<path style="fill:#FFFFFF;" d="M302.399,185.618c0.005,0,0.005,0-0.006-0.001v0.001c-0.044,0-0.24,0.004-0.389,0.09
								l-27.762,15.96c-0.653,0.377-1.055,1.074-1.055,1.828v21.926c0,0.1,0.021,0.192,0.056,0.275c0,0,0,0,0,0
								c0.156,0.36,0.606,0.539,0.98,0.323l27.763-15.96c0.653-0.377,1.055-1.074,1.055-1.828v-21.926
								C303.041,185.923,302.74,185.644,302.399,185.618z"/>
						</g>
					</g>
				</g>
				<g>
					<polygon style="fill:#BA68C8;" points="299.573,207.528 278.631,219.619 284.818,203.521 289.102,208.61 293.483,202.372 					
						"/>
					<polygon style="opacity:0.4;fill:#FFFFFF;" points="299.573,207.528 278.631,219.619 284.818,203.521 289.102,208.61 
						293.483,202.372 					"/>
					<path style="fill:#BA68C8;" d="M292.309,197.486c0,1.218-0.855,2.7-1.91,3.309c-1.055,0.609-1.91,0.115-1.91-1.103
						c0-1.218,0.855-2.7,1.91-3.309C291.454,195.774,292.309,196.268,292.309,197.486z"/>
				</g>
			</g>
			<g>
				<g>
					<g>
						<g>
							<path style="fill:#FFFFFF;" d="M228.335,228.49c0.005,0,0.005,0-0.006-0.001v0.001c-0.044,0-0.24,0.004-0.389,0.09
								l-27.763,15.96c-0.653,0.377-1.055,1.074-1.055,1.828v21.926c0,0.1,0.021,0.192,0.057,0.275c0,0,0,0-0.001,0
								c0.156,0.36,0.606,0.539,0.98,0.323l27.763-15.96c0.653-0.377,1.055-1.074,1.055-1.828v-21.926
								C228.977,228.794,228.675,228.515,228.335,228.49z"/>
						</g>
					</g>
				</g>
				<g>
					<polygon style="fill:#BA68C8;" points="225.509,250.399 204.567,262.49 210.754,246.393 215.038,251.481 219.419,245.243 					
						"/>
					<polygon style="opacity:0.4;fill:#FFFFFF;" points="225.509,250.399 204.567,262.49 210.754,246.393 215.038,251.481 
						219.419,245.243 					"/>
					<path style="fill:#BA68C8;" d="M218.244,240.357c0,1.218-0.855,2.7-1.91,3.309c-1.055,0.609-1.91,0.115-1.91-1.103
						c0-1.218,0.855-2.7,1.91-3.309C217.389,238.645,218.244,239.139,218.244,240.357z"/>
				</g>
			</g>
			<g>
				<g>
					<g>
						<g>
							<path style="fill:#FFFFFF;" d="M265.594,206.963c0.005,0,0.005,0-0.006-0.001v0.001c-0.044,0-0.24,0.004-0.389,0.09
								l-27.763,15.96c-0.653,0.377-1.055,1.074-1.055,1.828v21.926c0,0.1,0.021,0.192,0.056,0.275c0,0,0,0,0,0
								c0.156,0.36,0.606,0.539,0.98,0.323l27.762-15.96c0.653-0.377,1.055-1.074,1.055-1.828v-21.926
								C266.236,207.267,265.935,206.988,265.594,206.963z"/>
						</g>
					</g>
				</g>
				<g>
					<polygon style="fill:#BA68C8;" points="262.768,228.873 241.826,240.964 248.014,224.866 252.298,229.954 256.679,223.717 
											"/>
					<polygon style="opacity:0.4;fill:#FFFFFF;" points="262.768,228.873 241.826,240.964 248.014,224.866 252.298,229.954 
						256.679,223.717 					"/>
					<path style="fill:#BA68C8;" d="M255.504,218.83c0,1.218-0.855,2.7-1.91,3.309c-1.055,0.609-1.91,0.115-1.91-1.103
						c0-1.218,0.855-2.7,1.91-3.309C254.649,217.118,255.504,217.612,255.504,218.83z"/>
				</g>
			</g>
		</g>
		<g>
			<g>
				<g>
					<g>
						<path style="fill:#FFFFFF;" d="M271.978,94.893c0.021,0,0.017,0-0.022-0.002v0.003c-0.168,0-0.922,0.017-1.493,0.346
							l-106.565,61.263c-2.506,1.447-4.05,4.121-4.05,7.015v84.163c0,0.383,0.079,0.738,0.217,1.056c-0.001,0-0.001,0-0.001,0
							c0.597,1.383,2.326,2.07,3.763,1.241l106.565-61.263c2.506-1.447,4.05-4.121,4.05-7.015V97.536
							C274.442,96.06,273.286,94.991,271.978,94.893z"/>
					</g>
				</g>
			</g>
			<g>
				<polygon style="fill:#BA68C8;" points="261.131,178.992 180.746,225.403 204.495,163.612 220.939,183.144 237.755,159.2 				"/>
				<polygon style="opacity:0.4;fill:#FFFFFF;" points="261.131,178.992 180.746,225.403 204.495,163.612 220.939,183.144 
					237.755,159.2 				"/>
				<path style="fill:#BA68C8;" d="M233.247,140.445c0,4.676-3.283,10.362-7.332,12.7c-4.05,2.338-7.333,0.443-7.333-4.233
					c0-4.676,3.283-10.362,7.333-12.7C229.964,133.874,233.247,135.769,233.247,140.445z"/>
			</g>
		</g>
		<g>
			<g>
				<path style="fill:#FFFFFF;" d="M303.041,126.538c0,5.551-3.897,12.301-8.705,15.077c-4.807,2.775-8.705,0.525-8.705-5.026
					s3.897-12.301,8.705-15.077C299.144,118.737,303.041,120.987,303.041,126.538z"/>
			</g>
			<g>
				<path style="fill:#BA68C8;" d="M290.808,133.96c-0.278,0-0.548-0.144-0.697-0.402c-0.222-0.384-0.09-0.876,0.294-1.098
					l7.059-4.076c0.383-0.223,0.875-0.091,1.098,0.294c0.222,0.384,0.09,0.876-0.294,1.098l-7.059,4.076
					C291.082,133.925,290.944,133.96,290.808,133.96z"/>
				<path style="fill:#BA68C8;" d="M293.564,137.333c-0.136,0-0.274-0.035-0.401-0.108c-0.384-0.222-0.516-0.713-0.294-1.098
					l3.899-6.753l-3.605-2.081c-0.384-0.222-0.516-0.713-0.294-1.098c0.222-0.384,0.713-0.518,1.098-0.294l4.301,2.483
					c0.185,0.106,0.319,0.282,0.374,0.488c0.055,0.206,0.026,0.425-0.08,0.61l-4.301,7.449
					C294.112,137.189,293.842,137.333,293.564,137.333z"/>
			</g>
		</g>
		<g>
			<g>
				<path style="fill:#FFFFFF;" d="M148.658,215.853c0,5.551-3.897,12.301-8.704,15.077c-4.807,2.775-8.705,0.525-8.705-5.026
					c0-5.551,3.897-12.301,8.705-15.077C144.761,208.051,148.658,210.301,148.658,215.853z"/>
			</g>
			<g>
				<path style="fill:#BA68C8;" d="M136.425,224.165c-0.278,0-0.548-0.144-0.697-0.402c-0.222-0.384-0.09-0.876,0.294-1.098
					l7.059-4.076c0.383-0.221,0.876-0.09,1.098,0.294c0.222,0.384,0.09,0.876-0.294,1.098l-7.059,4.076
					C136.7,224.13,136.561,224.165,136.425,224.165z"/>
				<path style="fill:#BA68C8;" d="M140.724,226.648c-0.136,0-0.274-0.035-0.401-0.108l-4.301-2.483
					c-0.185-0.106-0.319-0.282-0.374-0.488c-0.055-0.206-0.026-0.425,0.08-0.61l4.301-7.449c0.222-0.384,0.712-0.517,1.098-0.294
					c0.384,0.222,0.516,0.713,0.294,1.098l-3.899,6.753l3.605,2.081c0.384,0.222,0.516,0.713,0.294,1.098
					C141.272,226.503,141.002,226.648,140.724,226.648z"/>
			</g>
		</g>
	</g>
</g>
<g id="Camera">
	<g>
		<path style="fill:#BA68C8;" d="M249.724,319.563v66.792c0,1.465-0.888,2.86-2.699,3.91l-94.853,54.762
			c-1.453,0.842-3.287,1.338-5.271,1.488c-0.023,0.012-0.058,0.012-0.092,0.012v-69.374L249.724,319.563z"/>
		<path style="opacity:0.2;" d="M165.943,392.471v29.296c0,2.124-1.133,4.087-2.973,5.148l-10.798,6.231
			c-1.453,0.842-3.287,1.338-5.271,1.488h-0.092v-36.689c0.002-0.002,0.003-0.003,0.005-0.005c2.017-0.142,3.884-0.64,5.358-1.494
			l10.331-5.962C164.032,389.602,165.943,390.706,165.943,392.471z"/>
		<path style="fill:#BA68C8;" d="M146.901,369.792v76.734h-2.907c-2.618-0.185-5.259-0.911-7.393-2.145l-10.473-6.044
			c-2.33-1.338-3.61-3.033-3.795-4.671v-63.874H146.901z"/>
		<path style="opacity:0.3;" d="M146.901,369.792v76.734h-2.907c-2.618-0.185-5.259-0.911-7.393-2.145l-10.473-6.044
			c-2.33-1.338-3.61-3.033-3.795-4.671v-63.874H146.901z"/>
		<path style="fill:#BA68C8;" d="M233.492,311.863c-4.455-1.762-10.155-1.717-13.617,0.284l-72.974,42.121l-21.891,12.641
			c-1.811,1.05-2.699,2.445-2.699,3.91c0,1.765,1.292,3.633,3.818,5.086l10.473,6.044c2.099,1.211,4.694,1.938,7.266,2.134
			c1.027,0.092,2.053,0.092,3.033,0c1.984-0.15,3.818-0.646,5.271-1.488l94.853-54.774c1.811-1.038,2.699-2.434,2.699-3.898v-19.388
			L233.492,311.863z"/>
		<path style="opacity:0.7;fill:#FFFFFF;" d="M233.492,311.863c-4.455-1.762-10.155-1.717-13.617,0.284l-72.974,42.121
			l-21.891,12.641c-1.811,1.05-2.699,2.445-2.699,3.91c0,1.765,1.292,3.633,3.818,5.086l10.473,6.044
			c2.099,1.211,4.694,1.938,7.266,2.134c1.027,0.092,2.053,0.092,3.033,0c1.984-0.15,3.818-0.646,5.271-1.488l94.853-54.774
			c1.811-1.038,2.699-2.434,2.699-3.898v-19.388L233.492,311.863z"/>
		<path style="fill:#BA68C8;" d="M146.901,350.957v33.125h-3.033c-2.572-0.196-5.167-0.923-7.266-2.134l-10.473-6.044
			c-2.526-1.453-3.818-3.322-3.818-5.086v-19.861H146.901z"/>
		<path style="opacity:0.5;fill:#FFFFFF;" d="M146.901,350.957v33.125h-3.033c-2.572-0.196-5.167-0.923-7.266-2.134l-10.473-6.044
			c-2.526-1.453-3.818-3.322-3.818-5.086v-19.861H146.901z"/>
		<path style="fill:#BA68C8;" d="M247.03,308.292l-94.863,54.769c-3.991,2.304-10.962,2.015-15.57-0.645l-10.473-6.046
			c-4.608-2.661-5.109-6.685-1.118-8.989l94.863-54.769c3.991-2.304,10.962-2.015,15.57,0.645l10.473,6.046
			C250.52,301.964,251.02,305.988,247.03,308.292z"/>
		<path style="opacity:0.6;fill:#FFFFFF;" d="M247.03,308.292l-94.863,54.769c-3.991,2.304-10.962,2.015-15.57-0.645l-10.473-6.046
			c-4.608-2.661-5.109-6.685-1.118-8.989l94.863-54.769c3.991-2.304,10.962-2.015,15.57,0.645l10.473,6.046
			C250.52,301.964,251.02,305.988,247.03,308.292z"/>
		<g>
			<path style="fill:#BA68C8;" d="M241.6,349.18l-9.706-5.644l-0.002,0.003c-5.929-3.631-14.223-3.233-23.408,2.07
				c-18.018,10.403-32.625,35.702-32.625,56.507c0,9.549,3.083,16.482,8.154,20.193l-0.002,0.003l0.026,0.015
				c0.838,0.611,1.726,1.137,2.668,1.569l7.709,4.534l1.888-3.171c3.765-0.422,7.874-1.821,12.182-4.308
				c18.018-10.403,32.625-35.702,32.625-56.507c0-4.356-0.648-8.161-1.826-11.373L241.6,349.18z"/>
			<path style="opacity:0.5;" d="M241.6,349.18l-9.706-5.644l-0.002,0.003c-5.929-3.631-14.223-3.233-23.408,2.07
				c-18.018,10.403-32.625,35.702-32.625,56.507c0,9.549,3.083,16.482,8.154,20.193l-0.002,0.003l0.026,0.015
				c0.838,0.611,1.726,1.137,2.668,1.569l7.709,4.534l1.888-3.171c3.765-0.422,7.874-1.821,12.182-4.308
				c18.018-10.403,32.625-35.702,32.625-56.507c0-4.356-0.648-8.161-1.826-11.373L241.6,349.18z"/>
			
				<ellipse transform="matrix(0.5 -0.866 0.866 0.5 -227.6893 382.6257)" style="fill:#BA68C8;" cx="217.521" cy="388.499" rx="46.138" ry="26.638"/>
			
				<ellipse transform="matrix(0.5 -0.866 0.866 0.5 -227.6893 382.6257)" style="opacity:0.2;" cx="217.521" cy="388.499" rx="46.138" ry="26.638"/>
			<g>
				<path style="fill:#BA68C8;" d="M245.219,361.6l-7.879-4.581l-0.001,0.002c-4.813-2.947-11.545-2.624-19.001,1.681
					c-14.626,8.444-26.482,28.98-26.482,45.869c0,7.751,2.502,13.379,6.619,16.392l-0.001,0.002l0.021,0.012
					c0.68,0.496,1.401,0.923,2.165,1.274l6.258,3.681l1.532-2.574c3.056-0.342,6.392-1.478,9.889-3.497
					c14.626-8.444,26.482-28.98,26.482-45.869c0-3.536-0.526-6.625-1.482-9.232L245.219,361.6z"/>
				<path style="opacity:0.4;" d="M245.219,361.6l-7.879-4.581l-0.001,0.002c-4.813-2.947-11.545-2.624-19.001,1.681
					c-14.626,8.444-26.482,28.98-26.482,45.869c0,7.751,2.502,13.379,6.619,16.392l-0.001,0.002l0.021,0.012
					c0.68,0.496,1.401,0.923,2.165,1.274l6.258,3.681l1.532-2.574c3.056-0.342,6.392-1.478,9.889-3.497
					c14.626-8.444,26.482-28.98,26.482-45.869c0-3.536-0.526-6.625-1.482-9.232L245.219,361.6z"/>
				
					<ellipse transform="matrix(0.5 -0.866 0.866 0.5 -227.9585 392.1956)" style="fill:#BA68C8;" cx="225.674" cy="393.517" rx="37.452" ry="21.623"/>
				
					<ellipse transform="matrix(0.5 -0.866 0.866 0.5 -227.9585 392.1954)" style="opacity:0.6;" cx="225.674" cy="393.517" rx="23.261" ry="13.43"/>
				<path style="fill:#BA68C8;" d="M224.457,375.297c-8.111,5.37-14.575,16.566-15.17,26.275c1.925,2.698,5.493,3.204,9.588,0.84
					c6.132-3.541,11.104-12.151,11.104-19.232C229.979,378.452,227.756,375.616,224.457,375.297z"/>
				<path style="opacity:0.8;" d="M224.457,375.297c-8.111,5.37-14.575,16.566-15.17,26.275c1.925,2.698,5.493,3.204,9.588,0.84
					c6.132-3.541,11.104-12.151,11.104-19.232C229.979,378.452,227.756,375.616,224.457,375.297z"/>
				<path style="fill:#FAFAFA;" d="M224.381,384.286c0,1.913-1.343,4.238-2.999,5.194c-1.656,0.956-2.999,0.181-2.999-1.731
					c0-1.913,1.343-4.238,2.999-5.194C223.039,381.599,224.381,382.374,224.381,384.286z"/>
			</g>
		</g>
		<g>
			<g>
				<path style="fill:#BA68C8;" d="M154.093,400.306c0,0.433-0.351,0.785-0.785,0.785c-0.433,0-0.785-0.351-0.785-0.785
					s0.351-0.785,0.785-0.785C153.741,399.521,154.093,399.872,154.093,400.306z"/>
				<path style="fill:#BA68C8;" d="M157.65,398.148c0,0.434-0.351,0.785-0.785,0.785c-0.433,0-0.785-0.351-0.785-0.785
					c0-0.433,0.351-0.785,0.785-0.785C157.299,397.363,157.65,397.715,157.65,398.148z"/>
				<path style="fill:#BA68C8;" d="M161.211,396.134c0,0.433-0.351,0.785-0.785,0.785c-0.434,0-0.785-0.351-0.785-0.785
					c0-0.433,0.351-0.785,0.785-0.785C160.86,395.35,161.211,395.701,161.211,396.134z"/>
			</g>
			<g>
				<path style="fill:#BA68C8;" d="M154.093,404.809c0,0.433-0.351,0.785-0.785,0.785c-0.433,0-0.785-0.351-0.785-0.785
					c0-0.434,0.351-0.785,0.785-0.785C153.741,404.024,154.093,404.375,154.093,404.809z"/>
				<path style="fill:#BA68C8;" d="M157.65,402.651c0,0.433-0.351,0.785-0.785,0.785c-0.433,0-0.785-0.351-0.785-0.785
					c0-0.434,0.351-0.785,0.785-0.785C157.299,401.866,157.65,402.218,157.65,402.651z"/>
				<path style="fill:#BA68C8;" d="M161.211,400.638c0,0.434-0.351,0.785-0.785,0.785c-0.434,0-0.785-0.351-0.785-0.785
					c0-0.433,0.351-0.785,0.785-0.785C160.86,399.853,161.211,400.204,161.211,400.638z"/>
			</g>
			<g>
				<path style="fill:#BA68C8;" d="M154.093,409.312c0,0.434-0.351,0.785-0.785,0.785c-0.433,0-0.785-0.351-0.785-0.785
					c0-0.433,0.351-0.785,0.785-0.785C153.741,408.527,154.093,408.879,154.093,409.312z"/>
				<circle style="fill:#BA68C8;" cx="156.866" cy="407.155" r="0.785"/>
				<circle style="fill:#BA68C8;" cx="160.427" cy="405.141" r="0.785"/>
			</g>
			<g>
				<path style="fill:#BA68C8;" d="M154.093,413.815c0,0.434-0.351,0.785-0.785,0.785c-0.433,0-0.785-0.351-0.785-0.785
					c0-0.433,0.351-0.785,0.785-0.785C153.741,413.031,154.093,413.382,154.093,413.815z"/>
				<path style="fill:#BA68C8;" d="M157.65,411.658c0,0.433-0.351,0.785-0.785,0.785c-0.433,0-0.785-0.352-0.785-0.785
					c0-0.433,0.351-0.785,0.785-0.785C157.299,410.873,157.65,411.224,157.65,411.658z"/>
				<circle style="fill:#BA68C8;" cx="160.427" cy="409.644" r="0.785"/>
			</g>
			<g>
				<path style="fill:#BA68C8;" d="M154.093,418.319c0,0.433-0.351,0.785-0.785,0.785c-0.433,0-0.785-0.351-0.785-0.785
					c0-0.434,0.351-0.785,0.785-0.785C153.741,417.534,154.093,417.885,154.093,418.319z"/>
				<circle style="fill:#BA68C8;" cx="156.866" cy="416.161" r="0.785"/>
				<circle style="fill:#BA68C8;" cx="160.427" cy="414.147" r="0.785"/>
			</g>
			<g>
				<path style="fill:#BA68C8;" d="M154.093,422.822c0,0.433-0.351,0.785-0.785,0.785c-0.433,0-0.785-0.352-0.785-0.785
					c0-0.434,0.351-0.785,0.785-0.785C153.741,422.037,154.093,422.388,154.093,422.822z"/>
				<path style="fill:#BA68C8;" d="M157.65,420.664c0,0.434-0.351,0.785-0.785,0.785c-0.433,0-0.785-0.351-0.785-0.785
					c0-0.433,0.351-0.785,0.785-0.785C157.299,419.88,157.65,420.231,157.65,420.664z"/>
				<circle style="fill:#BA68C8;" cx="160.427" cy="418.651" r="0.785"/>
			</g>
			<g>
				<path style="fill:#BA68C8;" d="M154.093,427.325c0,0.433-0.351,0.785-0.785,0.785c-0.433,0-0.785-0.351-0.785-0.785
					c0-0.434,0.351-0.785,0.785-0.785C153.741,426.54,154.093,426.892,154.093,427.325z"/>
				<path style="fill:#BA68C8;" d="M157.65,425.168c0,0.433-0.351,0.785-0.785,0.785c-0.433,0-0.785-0.351-0.785-0.785
					c0-0.434,0.351-0.785,0.785-0.785C157.299,424.383,157.65,424.734,157.65,425.168z"/>
				<path style="fill:#BA68C8;" d="M161.211,423.154c0,0.433-0.351,0.785-0.785,0.785c-0.434,0-0.785-0.351-0.785-0.785
					c0-0.434,0.351-0.785,0.785-0.785C160.86,422.369,161.211,422.721,161.211,423.154z"/>
			</g>
		</g>
		<g>
			<path style="fill:#BA68C8;" d="M211.238,317.061l-3.184,0.485l-9.43-5.444l-16.192,9.348l-9.959,1.518v4.232l10.132,5.85
				c3,1.732,7.538,1.92,10.136,0.42l16.743-9.666c1.122-0.648,1.697-1.505,1.748-2.41l0.006-0.003V317.061z"/>
			<path style="opacity:0.2;" d="M211.238,317.061l-3.184,0.485l-9.43-5.444l-16.192,9.348l-9.959,1.518v4.232l10.132,5.85
				c3,1.732,7.538,1.92,10.136,0.42l16.743-9.666c1.122-0.648,1.697-1.505,1.748-2.41l0.006-0.003V317.061z"/>
			<path style="fill:#BA68C8;" d="M209.484,319.571l-16.743,9.666c-2.598,1.5-7.136,1.312-10.136-0.42l-10.132-5.85l26.151-15.098
				l10.132,5.85C211.756,315.451,212.082,318.071,209.484,319.571z"/>
		</g>
		<g>
			<path style="fill:#BA68C8;" d="M203.909,313.58l-2.279,0.347l-6.749-3.896l-11.588,6.69l-7.127,1.086v3.029l7.251,4.187
				c2.147,1.24,5.395,1.374,7.254,0.301l11.982-6.918c0.803-0.464,1.214-1.077,1.251-1.724l0.005-0.002V313.58z"/>
			<path style="opacity:0.2;" d="M203.909,313.58l-2.279,0.347l-6.749-3.896l-11.588,6.69l-7.127,1.086v3.029l7.251,4.187
				c2.147,1.24,5.395,1.374,7.254,0.301l11.982-6.918c0.803-0.464,1.214-1.077,1.251-1.724l0.005-0.002V313.58z"/>
			<path style="fill:#BA68C8;" d="M202.653,315.376l-11.982,6.918c-1.859,1.074-5.107,0.939-7.254-0.301l-7.251-4.187l18.716-10.805
				l7.251,4.187C204.279,312.428,204.513,314.303,202.653,315.376z"/>
		</g>
		<g>
			<path style="fill:#BA68C8;" d="M158.244,348.407c0.01-0.15,0.01-0.3,0-0.45v-6.392h-20.882v6.903h0.024
				c0.119,1.447,1.123,2.875,3.037,3.98c4.081,2.356,10.698,2.356,14.779,0c1.914-1.105,2.919-2.533,3.037-3.98h0.005V348.407z"/>
			<path style="opacity:0.2;" d="M158.244,348.407c0.01-0.15,0.01-0.3,0-0.45v-6.392h-20.882v6.903h0.024
				c0.119,1.447,1.123,2.875,3.037,3.98c4.081,2.356,10.698,2.356,14.779,0c1.914-1.105,2.919-2.533,3.037-3.98h0.005V348.407z"/>
			<path style="fill:#BA68C8;" d="M155.202,337.3c4.081,2.356,4.081,6.176,0,8.533c-4.081,2.356-10.698,2.356-14.779,0
				c-4.081-2.356-4.081-6.177,0-8.533C144.504,334.943,151.121,334.943,155.202,337.3z"/>
		</g>
		<g>
			<path style="fill:#BA68C8;" d="M217.118,305.753c0.004-0.06,0.004-0.12,0-0.181v-2.568h-8.389v2.773h0.01
				c0.048,0.581,0.451,1.155,1.22,1.599c1.639,0.947,4.298,0.947,5.937,0c0.769-0.444,1.172-1.017,1.22-1.599h0.002V305.753z"/>
			<path style="opacity:0.2;" d="M217.118,305.753c0.004-0.06,0.004-0.12,0-0.181v-2.568h-8.389v2.773h0.01
				c0.048,0.581,0.451,1.155,1.22,1.599c1.639,0.947,4.298,0.947,5.937,0c0.769-0.444,1.172-1.017,1.22-1.599h0.002V305.753z"/>
			<path style="fill:#BA68C8;" d="M215.896,301.29c1.639,0.947,1.639,2.481,0,3.428c-1.64,0.947-4.298,0.947-5.937,0
				c-1.639-0.947-1.639-2.481,0-3.428C211.598,300.344,214.256,300.344,215.896,301.29z"/>
		</g>
		<g>
			<path style="fill:#BA68C8;" d="M236.049,304.995c0.008-0.123,0.008-0.246,0-0.369v-5.237h-17.112v5.657h0.02
				c0.097,1.186,0.92,2.356,2.489,3.261c3.344,1.931,8.766,1.931,12.111,0c1.568-0.906,2.392-2.075,2.489-3.261h0.004V304.995z"/>
			<path style="opacity:0.2;" d="M236.049,304.995c0.008-0.123,0.008-0.246,0-0.369v-5.237h-17.112v5.657h0.02
				c0.097,1.186,0.92,2.356,2.489,3.261c3.344,1.931,8.766,1.931,12.111,0c1.568-0.906,2.392-2.075,2.489-3.261h0.004V304.995z"/>
			<g>
				<path style="fill:#BA68C8;" d="M220.608,300.636v7.098c-0.236-0.177-0.443-0.364-0.63-0.571v-6.527H220.608z"/>
				<path style="fill:#BA68C8;" d="M223.01,300.636v8.378c-0.217-0.069-0.423-0.158-0.63-0.256v-8.122H223.01z"/>
				<path style="fill:#BA68C8;" d="M225.412,300.636v8.958c-0.216-0.02-0.423-0.059-0.63-0.108v-8.85H225.412z"/>
				<path style="fill:#BA68C8;" d="M227.814,300.636v9.106c-0.207,0.01-0.414,0.01-0.62,0v-9.106H227.814z"/>
				<path style="fill:#BA68C8;" d="M230.216,300.636v8.85c-0.207,0.049-0.413,0.089-0.62,0.108v-8.958H230.216z"/>
				<path style="fill:#BA68C8;" d="M232.618,300.636v8.122c-0.197,0.098-0.404,0.187-0.62,0.256v-8.378H232.618z"/>
				<path style="fill:#BA68C8;" d="M235.02,300.636v6.537c-0.187,0.197-0.394,0.384-0.62,0.551v-7.088H235.02z"/>
			</g>
			<path style="fill:#BA68C8;" d="M233.556,295.893c3.344,1.931,3.344,5.061,0,6.992c-3.344,1.931-8.766,1.931-12.111,0
				c-3.344-1.931-3.344-5.061,0-6.992C224.79,293.962,230.212,293.962,233.556,295.893z"/>
			<path style="opacity:0.2;" d="M230.137,297.867c1.456,0.841,1.456,2.204,0,3.044c-1.456,0.841-3.817,0.841-5.273,0
				c-1.456-0.841-1.456-2.204,0-3.044C226.32,297.026,228.681,297.026,230.137,297.867z"/>
		</g>
	</g>
</g>
<g id="Character">
	<g>
		<path style="fill:#BA68C8;" d="M423.739,401.723c0,0,5.912-3.3,6.657-6.977c0.745-3.677-5.743-12.163-5.743-12.163
			S419.797,385.329,423.739,401.723z"/>
		<path style="opacity:0.2;" d="M423.739,401.723c0,0,5.912-3.3,6.657-6.977c0.745-3.677-5.743-12.163-5.743-12.163
			S419.797,385.329,423.739,401.723z"/>
		<polygon style="fill:#BA68C8;" points="351.371,413.133 359.998,408.041 361.13,399.413 358.16,398.706 		"/>
		<polygon style="opacity:0.3;" points="351.371,413.133 359.998,408.041 361.13,399.413 358.16,398.706 		"/>
		<path style="fill:#945959;" d="M402.429,363.488l8.062,12.871l5.375,17.821c0,0,9.917-1.231,3.677-24.113l-4.667-13.792
			L402.429,363.488z"/>
		<path style="fill:#945959;" d="M349.673,368.304l1.697,20.501l-5.941,15.7c0,0,2.97,7.355,12.305-8.203
			c4.948-8.247,5.118-9.897,5.118-9.897l1.953-18.101H349.673z"/>
		<path style="fill:#703838;" d="M357.36,168.556l-3.03,5.995c-0.187,0.37-0.002,0.82,0.392,0.951l3.595,1.197L357.36,168.556z"/>
		<path style="fill:#945959;" d="M361.556,158.499c0,0-4.594,2.475-4.594,16.677c0,7.81,0.536,12.787,4.594,12.481
			c4.058-0.306,15.734-1.838,15.734-1.838v-27.32H361.556z"/>
		<g>
			<path style="fill:#703838;" d="M361.556,187.657c1.426-0.108,3.795-0.367,6.265-0.658v-1.448
				c-2.273,1.165-6.327,1.982-6.943,2.102C361.092,187.671,361.317,187.675,361.556,187.657z"/>
			<g>
				<polygon style="fill:#FFA8A7;" points="367.126,184.945 367.126,193.859 379.319,193.859 379.319,181.334 				"/>
			</g>
		</g>
		<path style="fill:#945959;" d="M388.003,216.252l7.92,16.265l-5.94,7.779l4.107,13.901l12.735-15.032
			c2.251-2.658,2.871-6.324,1.609-9.571c-3.506-9.018-10.486-26.752-12.369-29.891c-2.546-4.243-5.587-6.505-10.148-6.364
			C381.355,193.48,388.003,216.252,388.003,216.252z"/>
		<path style="fill:#37474F;" d="M391.822,242.984c1.839,5.516,5.848,13.276,5.682,39.381c-0.116,18.24,0.056,28.5,0.171,33.027
			c0.041,1.618,0.652,3.173,1.774,4.34c1.936,2.012,5.245,6.315,8.356,14.48c4.786,12.562,7.072,22.064,7.072,22.064
			s-2.263,7.355-12.447,7.213l-25.467-40.933c-1.02-1.64-1.678-3.478-1.93-5.393l-6.69-50.841v-20.791L391.822,242.984z"/>
		<path style="fill:#263238;" d="M373.708,307.093l7.082-25.356c0,0,9.936-10.103,6.4-27.54l-15.028,18.913l0.762,28.867
			L373.708,307.093z"/>
		<path style="fill:#37474F;" d="M350.381,244.398c-0.424,8.203-4.88,59.262-4.243,74.113c0.637,14.851,3.536,49.793,3.536,49.793
			s9.618,3.967,15.134,0c0,0,2.328-13.768,3.857-24.665c1.142-8.134,0.238-13.841-0.576-16.926
			c-0.537-2.036-0.522-4.168,0.009-6.205l10.836-41.6c0,0,9.352-6.567,9.352-24.711c0-7.536,0-13.618,0-13.618L350.381,244.398z"/>
		<path style="fill:#BA68C8;" d="M376.405,187.597l-19.444,7.157c0,0-9.127,7.921-9.127,23.054c0,4.246,4.102,8.062,4.102,8.062
			s-1.414,13.295-1.556,18.528c0,0,9.966,7.004,28.553,4.243c6.665-0.99,12.888-5.657,12.888-5.657s-2.829-11.739-3.253-12.871
			c-0.424-1.132,3.96-14.851,3.96-25.742L376.405,187.597z"/>
		<path style="fill:#263238;" d="M359.188,161.664c0,0,0.778,6.865,5.161,8.733c0,0-3.472,4.767,1.688,6.853l0.005-3.682
			l2.156,4.211c0,0-6.079,24.611,4.458,24.611c2.192,0,4.031-0.849,5.021-1.768c0,0,1.626,6.435,11.386,6.435
			s11.598-9.547,11.598-9.547s-6.506,1.98-6.506-4.809c0-6.789-0.495-28.57-0.849-31.894c-0.354-3.324-4.102-11.987-14.497-13.224
			c-7.596-0.904-17.467-0.849-23.125,7.001c-5.658,7.85,2.443,10.053,2.443,10.053S358.236,164.359,359.188,161.664z"/>
		<path style="fill:#945959;" d="M366.043,173.568c0,0-0.33-6.003,4.318-5.542c5.337,0.529,3.64,10.179-2.867,10.179
			L366.043,173.568z"/>
		<path style="fill:#945959;" d="M356.961,194.753c-11.875,3.762-34.444,15.699-34.444,15.699l-20.65-18.245l-7.751,8.345
			C301.61,210.83,310.61,219.38,315.856,224c2.618,2.305,6.298,2.939,9.538,1.648c4.136-1.647,9.966-3.943,14.379-5.577
			c7.638-2.829,23.762-6.789,23.762-15.558C363.534,195.743,356.961,194.753,356.961,194.753z"/>
		<path style="fill:#BA68C8;" d="M362.854,386.405c0,0-4.694,0.562-6.957,5.088c-2.263,4.526-6.506,17.255-10.466,13.012
			l1.344-3.551c0,0-15.827,3.463-12.051,7.609c3.776,4.146,15.657,5.985,16.647,4.57c0.99-1.414,6.365-11.598,6.365-11.598
			l2.97,13.578c0,0,1.273,1.273,3.112,0C363.817,415.113,367.689,389.096,362.854,386.405z"/>
		<path style="fill:#BA68C8;" d="M415.866,394.18c0,0,3.677-1.556,3.112-6.365c-0.566-4.809-4.233-14.384,0.566-17.748
			c2.122-1.487,6.854,5.019,10.853,12.798c3.998,7.779,5.13,10.042,5.13,10.042s-0.443,2.078-2.263,1.98l-8.769-9.052
			c0,0-0.99,4.102,0.283,8.345c1.273,4.243,1.444,6.707-3.172,8.769c-4.616,2.062-17.275,4.867-10.511-3.677
			C414.452,395.029,415.866,394.18,415.866,394.18z"/>
		<path style="fill:#945959;" d="M302.066,193.41c0,0,1.082-6.115,2.012-8.516c0.93-2.401,1.342-4.446-0.934-3.531
			c-2.276,0.914-4.081,5.046-4.242,5.521c0,0-11.592-13.725-13.194-13.581c-1.601,0.144-1.392,2.086,1.687,6.282
			c3.079,4.196,3.079,4.196,3.079,4.196s-8.113,3.828-7.247,8.79c0.866,4.961,10.889,7.982,10.889,7.982L302.066,193.41z"/>
	</g>
</g>
</svg>
