<svg version="1.1" id="Layer_1" xmlns="http://www.w3.org/2000/svg" xmlns:xlink="http://www.w3.org/1999/xlink" x="0px" y="0px"
	 width="100%" viewBox="0 0 538 257" enable-background="new 0 0 538 257" xml:space="preserve">
<path fill="#000000" opacity="1.000000" stroke="none" 
	d="
M401.000000,258.000000 
	C267.375214,258.000000 134.250412,258.000000 1.062804,258.000000 
	C1.062804,172.402176 1.062804,86.804298 1.062804,1.103207 
	C180.333313,1.103207 359.666656,1.103207 538.978271,1.103207 
	C538.978271,86.749519 538.978271,172.374756 538.978271,258.000000 
	C493.137695,258.000000 447.318848,258.000000 401.000000,258.000000 
M115.500000,227.000000 
	C162.498398,227.000000 209.496811,227.003571 256.495209,226.995911 
	C263.118103,226.994827 264.977844,225.122635 264.996979,218.511276 
	C265.011932,213.344803 265.015472,208.178192 264.994965,203.011749 
	C264.979095,199.011871 261.867981,195.157379 258.595215,195.025085 
	C254.480530,194.858765 251.147675,198.301849 251.017807,202.995758 
	C250.927582,206.256790 251.000443,209.522339 251.000443,212.626740 
	C180.607605,212.626740 110.882912,212.626740 41.236992,212.626740 
	C41.236992,156.979324 41.236992,101.705482 41.236992,46.276253 
	C111.199478,46.276253 180.924713,46.276253 251.000229,46.276253 
	C251.000229,50.182281 250.958374,53.817074 251.010086,57.450539 
	C251.086685,62.833687 253.235062,64.984222 258.441162,64.999763 
	C262.771515,65.012688 264.921265,62.696281 264.982300,57.701923 
	C265.055664,51.702991 265.036560,45.702190 264.989197,39.702736 
	C264.944977,34.102562 262.863953,32.012264 257.209106,32.011005 
	C183.377884,31.994589 109.546677,31.993792 35.715466,32.012287 
	C29.886196,32.013748 27.011978,34.945126 27.010292,40.849300 
	C26.993450,99.847603 27.017464,158.845932 26.973799,217.844208 
	C26.969305,223.914383 29.933834,227.235733 36.004337,227.152802 
	C62.165371,226.795349 88.334084,227.000000 115.500000,227.000000 
M299.398621,163.213135 
	C300.942200,161.765274 302.906830,160.569672 303.952850,158.823730 
	C307.528717,152.854935 310.725464,146.660660 314.173187,140.613022 
	C317.879089,134.112503 321.704926,127.680382 325.478455,121.218414 
	C325.901733,121.364960 326.325012,121.511505 326.748291,121.658051 
	C326.832153,123.409576 326.986450,125.161003 326.988831,126.912636 
	C327.009033,141.909668 326.969543,156.906860 327.020050,171.903748 
	C327.037811,177.178406 329.090790,179.074509 334.336884,178.994583 
	C339.976746,178.908661 341.982422,176.725891 341.988342,170.400192 
	C342.013214,143.738770 341.917725,117.076820 342.076996,90.416328 
	C342.104767,85.766953 340.849640,82.599136 336.092346,81.576576 
	C331.704224,80.633347 328.863892,82.809555 326.815857,86.456970 
	C320.729431,97.296410 314.659729,108.145523 308.509705,118.948875 
	C304.689117,125.660332 300.734772,132.295670 296.365051,139.779373 
	C294.725677,137.333755 293.548981,135.804977 292.609802,134.142044 
	C283.644867,118.268074 274.668091,102.400291 265.822296,86.459930 
	C263.742981,82.712929 261.186615,80.636276 256.685272,81.628403 
	C251.707672,82.725517 250.023560,86.145821 250.018585,90.738327 
	C249.989807,117.233101 249.974335,143.727982 250.027512,170.222687 
	C250.039215,176.051865 253.080170,179.091995 258.384521,178.994629 
	C264.005096,178.891479 265.974915,176.710739 265.989014,170.352600 
	C266.020813,156.022125 265.987976,141.691528 266.016632,127.361061 
	C266.019928,125.707253 266.246124,124.053886 266.468353,121.062546 
	C268.036591,123.041893 268.733337,123.720192 269.193512,124.532486 
	C275.403564,135.493561 281.675690,146.421310 287.719910,157.473557 
	C290.188293,161.987167 293.212250,164.880493 299.398621,163.213135 
M358.000000,111.500031 
	C358.000885,130.656784 357.967468,149.813629 358.022217,168.970230 
	C358.040192,175.253616 360.878662,177.982849 367.129456,177.993942 
	C377.790558,178.012878 388.490570,178.579803 399.104675,177.872757 
	C420.161316,176.470062 429.668793,160.502640 424.775757,141.819031 
	C423.295319,136.166107 418.562561,131.364944 415.016663,125.688858 
	C414.857880,125.878250 415.468079,125.110504 416.119385,124.379402 
	C427.014954,112.148643 421.516937,90.095612 406.897736,85.360146 
	C393.294098,80.953644 379.368713,81.679459 365.494629,82.465172 
	C360.398132,82.753792 358.072571,86.589195 358.017090,92.009819 
	C357.954010,98.172653 358.000916,104.336609 358.000000,111.500031 
M502.167358,145.234116 
	C494.335144,126.259438 486.483978,107.292549 478.686249,88.303711 
	C477.070740,84.369621 474.806549,81.100357 470.152588,81.153938 
	C465.502350,81.207489 463.391174,84.595390 461.772064,88.487511 
	C450.770447,114.933708 439.682495,141.344025 428.697937,167.797287 
	C426.842255,172.266220 428.178955,176.517456 431.578217,178.195465 
	C436.233459,180.493484 440.932098,179.132874 443.250244,174.285614 
	C446.104462,168.317352 448.625000,162.179886 451.057007,156.023605 
	C452.187531,153.161942 453.777405,151.878998 456.975555,151.941772 
	C465.965149,152.118195 474.965607,151.849640 483.948730,152.148056 
	C485.544769,152.201065 487.806946,153.786072 488.512238,155.261017 
	C491.293762,161.078156 493.464508,167.183395 496.078339,173.085846 
	C498.538849,178.642105 503.075897,180.642990 508.177338,178.741592 
	C511.707703,177.425766 513.370483,171.957870 511.388184,166.982193 
	C508.569183,159.906418 505.467560,152.943253 502.167358,145.234116 
M168.498627,164.002640 
	C169.860062,160.268570 171.350388,156.574936 172.538467,152.786499 
	C173.355743,150.180435 173.808502,147.337463 170.227615,146.257263 
	C166.723145,145.200104 165.024857,147.129471 164.034973,150.251114 
	C162.927475,153.743698 161.633575,157.177185 159.927139,162.044434 
	C158.493820,156.996429 157.821381,153.400375 156.398422,150.130981 
	C155.679260,148.478607 153.640747,146.429596 152.128281,146.370743 
	C150.662338,146.313690 148.450073,148.280060 147.725708,149.882248 
	C146.204575,153.246735 145.444458,156.955261 144.371933,160.522552 
	C141.958496,156.913116 140.918747,152.948837 139.028198,149.443390 
	C138.187759,147.885025 135.707611,146.748199 133.813919,146.461212 
	C133.111588,146.354767 131.609772,149.124771 131.119919,150.775146 
	C130.729019,152.092041 131.007553,153.822281 131.528259,155.158951 
	C134.162949,161.922363 136.795258,168.700150 139.851135,175.276443 
	C140.597885,176.883484 142.955795,178.713089 144.535385,178.679398 
	C146.014297,178.647858 147.951202,176.536606 148.778351,174.885605 
	C150.099197,172.249115 150.667969,169.235855 151.966614,165.056259 
	C153.277740,169.217575 153.845551,171.995453 155.039215,174.471603 
	C155.860672,176.175720 157.569199,178.665909 158.846527,178.645355 
	C160.654663,178.616272 163.147873,176.996231 164.068985,175.343292 
	C165.899551,172.058273 166.856903,168.286636 168.498627,164.002640 
M96.629845,139.216019 
	C94.683701,137.268768 93.046005,134.298798 90.723816,133.598450 
	C86.567032,132.344818 82.003220,132.133591 77.600304,132.062927 
	C66.002037,131.876862 65.997787,132.000061 66.000687,143.713852 
	C66.003197,153.850525 65.811188,163.995224 66.216827,174.115860 
	C66.283646,175.782822 68.984062,177.344223 70.467361,178.954391 
	C71.971642,177.366013 73.989487,176.005676 74.826385,174.120941 
	C75.567078,172.452850 74.997162,170.201141 74.999367,168.207092 
	C75.007309,161.027130 75.018669,160.743011 82.308060,161.061066 
	C95.985992,161.657898 100.354019,150.743988 96.629845,139.216019 
M185.967468,128.430786 
	C189.969086,129.512238 191.722260,127.198715 191.879639,123.831421 
	C192.159332,117.847206 192.309479,111.811142 191.841476,105.849564 
	C191.278366,98.676628 186.937027,94.896416 180.057068,95.070557 
	C177.530136,95.134506 175.021957,95.939056 171.981171,96.502968 
	C171.981171,93.048363 172.003754,89.907097 171.974701,86.766296 
	C171.946762,83.744675 170.669144,81.259201 167.494293,81.263611 
	C164.319931,81.268021 163.031219,83.757973 163.026306,86.778328 
	C163.006256,99.108208 163.075684,111.438667 162.968170,123.767662 
	C162.940475,126.942772 164.591202,128.650421 167.318481,128.720490 
	C170.326401,128.797791 172.129288,127.044968 172.028549,123.638084 
	C171.885803,118.810509 172.073105,113.974022 171.988876,109.143616 
	C171.922516,105.337563 174.324265,103.344391 177.453339,103.317245 
	C180.580246,103.290123 183.047928,105.238213 183.002563,109.046547 
	C182.947006,113.711205 182.800934,118.390076 183.105942,123.035759 
	C183.218536,124.750740 184.502289,126.388832 185.967468,128.430786 
M201.967560,164.410187 
	C204.731537,156.538040 201.501343,148.611740 194.600632,146.333115 
	C185.850494,143.443802 176.294357,147.709976 174.352478,155.709763 
	C173.662003,158.554276 174.146225,161.672394 173.987488,164.659943 
	C173.674515,170.550476 175.873734,175.633255 181.212097,177.708588 
	C187.462860,180.138580 194.335419,180.504379 200.157074,176.015823 
	C201.331268,175.110489 201.713211,172.474380 201.480148,170.770325 
	C201.377396,170.019028 198.826370,169.161621 197.382706,169.154175 
	C195.825104,169.146103 194.270004,170.099014 192.700943,170.591721 
	C187.730804,172.152512 184.191055,170.580688 183.064377,166.000000 
	C184.968246,166.000000 186.788055,166.094894 188.594696,165.980972 
	C192.849045,165.712769 197.097092,165.344925 201.967560,164.410187 
M219.564484,118.089027 
	C217.588943,118.935646 215.658783,119.916840 213.628632,120.601578 
	C209.043808,122.147964 205.556152,120.061493 204.690338,114.989548 
	C209.737701,114.989548 214.742874,115.302811 219.671890,114.826981 
	C221.504089,114.650108 224.168777,112.968208 224.707626,111.380127 
	C226.475922,106.168678 221.781555,97.695175 216.585220,96.059021 
	C208.000687,93.356041 197.286530,95.287926 195.324005,108.591270 
	C194.331772,115.317337 195.397034,121.973930 201.038467,126.171906 
	C206.766891,130.434601 213.589310,130.149796 219.904221,126.875153 
	C221.595673,125.998047 223.287445,123.927132 223.652649,122.134094 
	C223.872345,121.055489 221.530273,119.455101 219.564484,118.089027 
M129.277908,154.710205 
	C126.902054,143.907730 107.385788,143.096756 102.438179,151.116562 
	C99.272308,156.248291 98.641121,161.790192 99.958626,167.720825 
	C101.197731,173.298538 105.286140,178.249023 109.825768,178.936432 
	C119.586372,180.414368 126.237144,178.378006 128.446777,171.555374 
	C130.060806,166.571808 129.358032,160.837921 129.277908,154.710205 
M150.350067,81.000000 
	C147.026047,81.000000 143.701965,80.985954 140.378036,81.003616 
	C136.390442,81.024803 132.327698,80.639320 128.450714,81.312447 
	C126.784737,81.601700 124.423965,84.074387 124.369438,85.625069 
	C124.320290,87.022728 126.778152,88.920128 128.528687,89.834305 
	C129.839310,90.518745 131.797379,90.135330 133.441956,89.972588 
	C136.867645,89.633591 138.129898,90.962029 138.060638,94.480225 
	C137.874191,103.949928 137.897141,113.427971 138.097717,122.897179 
	C138.134003,124.610443 138.936615,126.931038 140.202682,127.874100 
	C143.578583,130.388718 146.879730,127.931572 146.952927,122.824844 
	C147.086319,113.519493 147.124680,104.208405 146.937012,94.905067 
	C146.865616,91.365364 147.727402,89.731186 151.630722,89.912201 
	C155.198181,90.077637 160.438766,91.203682 160.237045,85.469460 
	C160.049835,80.148125 155.070984,81.008720 150.350067,81.000000 
M207.000015,161.505829 
	C207.003021,165.833771 207.049805,170.162292 206.992935,174.489441 
	C206.957657,177.172562 207.575165,179.162933 210.830627,178.936050 
	C213.543671,178.746948 215.100739,177.570694 215.017822,174.563217 
	C214.903183,170.405151 214.872284,166.235611 215.048508,162.081299 
	C215.216095,158.130615 216.817719,154.838654 221.078110,154.106720 
	C224.157272,153.577744 226.359131,152.522842 225.775681,149.110306 
	C225.078842,145.034546 221.762405,146.078842 219.020508,146.142548 
	C216.695755,146.196533 214.365753,146.256805 212.044312,146.161865 
	C209.228714,146.046707 207.026688,146.567322 207.018707,150.025757 
	C207.010635,153.521378 207.006088,157.016998 207.000015,161.505829 
z"/>
<path fill="#41F0A5" opacity="1.000000" stroke="none" 
	d="
M115.000000,227.000000 
	C88.334084,227.000000 62.165371,226.795349 36.004337,227.152802 
	C29.933834,227.235733 26.969305,223.914383 26.973799,217.844208 
	C27.017464,158.845932 26.993450,99.847603 27.010292,40.849300 
	C27.011978,34.945126 29.886196,32.013748 35.715466,32.012287 
	C109.546677,31.993792 183.377884,31.994589 257.209106,32.011005 
	C262.863953,32.012264 264.944977,34.102562 264.989197,39.702736 
	C265.036560,45.702190 265.055664,51.702991 264.982300,57.701923 
	C264.921265,62.696281 262.771515,65.012688 258.441162,64.999763 
	C253.235062,64.984222 251.086685,62.833687 251.010086,57.450539 
	C250.958374,53.817074 251.000229,50.182281 251.000229,46.276253 
	C180.924713,46.276253 111.199478,46.276253 41.236992,46.276253 
	C41.236992,101.705482 41.236992,156.979324 41.236992,212.626740 
	C110.882912,212.626740 180.607605,212.626740 251.000443,212.626740 
	C251.000443,209.522339 250.927582,206.256790 251.017807,202.995758 
	C251.147675,198.301849 254.480530,194.858765 258.595215,195.025085 
	C261.867981,195.157379 264.979095,199.011871 264.994965,203.011749 
	C265.015472,208.178192 265.011932,213.344803 264.996979,218.511276 
	C264.977844,225.122635 263.118103,226.994827 256.495209,226.995911 
	C209.496811,227.003571 162.498398,227.000000 115.000000,227.000000 
z"/>
<path fill="#464646" opacity="1.000000" stroke="none" 
	d="
M299.067474,163.410751 
	C293.212250,164.880493 290.188293,161.987167 287.719910,157.473557 
	C281.675690,146.421310 275.403564,135.493561 269.193512,124.532486 
	C268.733337,123.720192 268.036591,123.041893 266.468353,121.062546 
	C266.246124,124.053886 266.019928,125.707253 266.016632,127.361061 
	C265.987976,141.691528 266.020813,156.022125 265.989014,170.352600 
	C265.974915,176.710739 264.005096,178.891479 258.384521,178.994629 
	C253.080170,179.091995 250.039215,176.051865 250.027512,170.222687 
	C249.974335,143.727982 249.989807,117.233101 250.018585,90.738327 
	C250.023560,86.145821 251.707672,82.725517 256.685272,81.628403 
	C261.186615,80.636276 263.742981,82.712929 265.822296,86.459930 
	C274.668091,102.400291 283.644867,118.268074 292.609802,134.142044 
	C293.548981,135.804977 294.725677,137.333755 296.365051,139.779373 
	C300.734772,132.295670 304.689117,125.660332 308.509705,118.948875 
	C314.659729,108.145523 320.729431,97.296410 326.815857,86.456970 
	C328.863892,82.809555 331.704224,80.633347 336.092346,81.576576 
	C340.849640,82.599136 342.104767,85.766953 342.076996,90.416328 
	C341.917725,117.076820 342.013214,143.738770 341.988342,170.400192 
	C341.982422,176.725891 339.976746,178.908661 334.336884,178.994583 
	C329.090790,179.074509 327.037811,177.178406 327.020050,171.903748 
	C326.969543,156.906860 327.009033,141.909668 326.988831,126.912636 
	C326.986450,125.161003 326.832153,123.409576 326.748291,121.658051 
	C326.325012,121.511505 325.901733,121.364960 325.478455,121.218414 
	C321.704926,127.680382 317.879089,134.112503 314.173187,140.613022 
	C310.725464,146.660660 307.528717,152.854935 303.952850,158.823730 
	C302.906830,160.569672 300.942200,161.765274 299.067474,163.410751 
z"/>
<path fill="#464646" opacity="1.000000" stroke="none" 
	d="
M358.000000,111.000053 
	C358.000916,104.336609 357.954010,98.172653 358.017090,92.009819 
	C358.072571,86.589195 360.398132,82.753792 365.494629,82.465172 
	C379.368713,81.679459 393.294098,80.953644 406.897736,85.360146 
	C421.516937,90.095612 427.014954,112.148643 416.119385,124.379402 
	C415.468079,125.110504 414.857880,125.878250 415.016663,125.688858 
	C418.562561,131.364944 423.295319,136.166107 424.775757,141.819031 
	C429.668793,160.502640 420.161316,176.470062 399.104675,177.872757 
	C388.490570,178.579803 377.790558,178.012878 367.129456,177.993942 
	C360.878662,177.982849 358.040192,175.253616 358.022217,168.970230 
	C357.967468,149.813629 358.000885,130.656784 358.000000,111.000053 
M378.715515,136.002136 
	C376.368286,136.013596 373.928802,135.671371 373.988098,139.339584 
	C374.103760,146.497177 373.883026,153.663696 374.175537,160.811203 
	C374.220459,161.909042 376.259705,163.834045 377.373138,163.831573 
	C384.488678,163.815887 391.649841,163.770126 398.705414,162.952545 
	C406.195190,162.084641 410.301636,156.589569 409.988922,149.168411 
	C409.664215,141.462036 404.862946,136.390106 397.153168,136.064331 
	C391.335815,135.818527 385.500122,136.005890 378.715515,136.002136 
M395.103088,120.953156 
	C401.886353,118.992004 405.829834,114.667320 405.914215,109.097122 
	C405.980774,104.701668 402.827698,99.509331 397.689758,98.593414 
	C390.611481,97.331604 383.274292,97.445801 376.040619,97.262634 
	C375.393829,97.246254 374.146759,99.353088 374.108612,100.504662 
	C373.910919,106.472679 374.107544,112.452744 373.975952,118.424400 
	C373.910553,121.391731 375.365479,122.173088 377.959198,122.000679 
	C383.390411,121.639664 388.824768,121.326050 395.103088,120.953156 
z"/>
<path fill="#464646" opacity="1.000000" stroke="none" 
	d="
M502.327026,145.583038 
	C505.467560,152.943253 508.569183,159.906418 511.388184,166.982193 
	C513.370483,171.957870 511.707703,177.425766 508.177338,178.741592 
	C503.075897,180.642990 498.538849,178.642105 496.078339,173.085846 
	C493.464508,167.183395 491.293762,161.078156 488.512238,155.261017 
	C487.806946,153.786072 485.544769,152.201065 483.948730,152.148056 
	C474.965607,151.849640 465.965149,152.118195 456.975555,151.941772 
	C453.777405,151.878998 452.187531,153.161942 451.057007,156.023605 
	C448.625000,162.179886 446.104462,168.317352 443.250244,174.285614 
	C440.932098,179.132874 436.233459,180.493484 431.578217,178.195465 
	C428.178955,176.517456 426.842255,172.266220 428.697937,167.797287 
	C439.682495,141.344025 450.770447,114.933708 461.772064,88.487511 
	C463.391174,84.595390 465.502350,81.207489 470.152588,81.153938 
	C474.806549,81.100357 477.070740,84.369621 478.686249,88.303711 
	C486.483978,107.292549 494.335144,126.259438 502.327026,145.583038 
M468.786102,112.456360 
	C465.515076,120.321640 462.244049,128.186920 458.730713,136.634872 
	C466.757721,136.634872 473.882507,136.634872 481.584290,136.634872 
	C478.151825,128.212448 474.968475,120.282715 471.644409,112.412422 
	C471.277832,111.544487 470.598297,108.843300 468.786102,112.456360 
z"/>
<path fill="#464646" opacity="1.000000" stroke="none" 
	d="
M168.336838,164.359360 
	C166.856903,168.286636 165.899551,172.058273 164.068985,175.343292 
	C163.147873,176.996231 160.654663,178.616272 158.846527,178.645355 
	C157.569199,178.665909 155.860672,176.175720 155.039215,174.471603 
	C153.845551,171.995453 153.277740,169.217575 151.966614,165.056259 
	C150.667969,169.235855 150.099197,172.249115 148.778351,174.885605 
	C147.951202,176.536606 146.014297,178.647858 144.535385,178.679398 
	C142.955795,178.713089 140.597885,176.883484 139.851135,175.276443 
	C136.795258,168.700150 134.162949,161.922363 131.528259,155.158951 
	C131.007553,153.822281 130.729019,152.092041 131.119919,150.775146 
	C131.609772,149.124771 133.111588,146.354767 133.813919,146.461212 
	C135.707611,146.748199 138.187759,147.885025 139.028198,149.443390 
	C140.918747,152.948837 141.958496,156.913116 144.371933,160.522552 
	C145.444458,156.955261 146.204575,153.246735 147.725708,149.882248 
	C148.450073,148.280060 150.662338,146.313690 152.128281,146.370743 
	C153.640747,146.429596 155.679260,148.478607 156.398422,150.130981 
	C157.821381,153.400375 158.493820,156.996429 159.927139,162.044434 
	C161.633575,157.177185 162.927475,153.743698 164.034973,150.251114 
	C165.024857,147.129471 166.723145,145.200104 170.227615,146.257263 
	C173.808502,147.337463 173.355743,150.180435 172.538467,152.786499 
	C171.350388,156.574936 169.860062,160.268570 168.336838,164.359360 
z"/>
<path fill="#464646" opacity="1.000000" stroke="none" 
	d="
M96.798645,139.579834 
	C100.354019,150.743988 95.985992,161.657898 82.308060,161.061066 
	C75.018669,160.743011 75.007309,161.027130 74.999367,168.207092 
	C74.997162,170.201141 75.567078,172.452850 74.826385,174.120941 
	C73.989487,176.005676 71.971642,177.366013 70.467354,178.954391 
	C68.984062,177.344223 66.283646,175.782822 66.216827,174.115860 
	C65.811188,163.995224 66.003197,153.850525 66.000687,143.713852 
	C65.997787,132.000061 66.002037,131.876862 77.600304,132.062927 
	C82.003220,132.133591 86.567032,132.344818 90.723816,133.598450 
	C93.046005,134.298798 94.683701,137.268768 96.798645,139.579834 
M87.960258,144.387939 
	C86.472153,140.674149 83.362823,139.773941 79.851646,140.076874 
	C78.258667,140.214340 75.455528,141.027679 75.396088,141.722244 
	C75.121635,144.929245 74.431389,149.488602 76.170197,151.094498 
	C77.954063,152.742004 82.582352,152.176071 85.565544,151.266373 
	C86.909683,150.856491 87.282303,147.260620 87.960258,144.387939 
z"/>
<path fill="#464646" opacity="1.000000" stroke="none" 
	d="
M185.609680,128.246399 
	C184.502289,126.388832 183.218536,124.750740 183.105942,123.035759 
	C182.800934,118.390076 182.947006,113.711205 183.002563,109.046547 
	C183.047928,105.238213 180.580246,103.290123 177.453339,103.317245 
	C174.324265,103.344391 171.922516,105.337563 171.988876,109.143616 
	C172.073105,113.974022 171.885803,118.810509 172.028549,123.638084 
	C172.129288,127.044968 170.326401,128.797791 167.318481,128.720490 
	C164.591202,128.650421 162.940475,126.942772 162.968170,123.767662 
	C163.075684,111.438667 163.006256,99.108208 163.026306,86.778328 
	C163.031219,83.757973 164.319931,81.268021 167.494293,81.263611 
	C170.669144,81.259201 171.946762,83.744675 171.974701,86.766296 
	C172.003754,89.907097 171.981171,93.048363 171.981171,96.502968 
	C175.021957,95.939056 177.530136,95.134506 180.057068,95.070557 
	C186.937027,94.896416 191.278366,98.676628 191.841476,105.849564 
	C192.309479,111.811142 192.159332,117.847206 191.879639,123.831421 
	C191.722260,127.198715 189.969086,129.512238 185.609680,128.246399 
z"/>
<path fill="#464646" opacity="1.000000" stroke="none" 
	d="
M201.657623,164.713776 
	C197.097092,165.344925 192.849045,165.712769 188.594696,165.980972 
	C186.788055,166.094894 184.968246,166.000000 183.064377,166.000000 
	C184.191055,170.580688 187.730804,172.152512 192.700943,170.591721 
	C194.270004,170.099014 195.825104,169.146103 197.382706,169.154175 
	C198.826370,169.161621 201.377396,170.019028 201.480148,170.770325 
	C201.713211,172.474380 201.331268,175.110489 200.157074,176.015823 
	C194.335419,180.504379 187.462860,180.138580 181.212097,177.708588 
	C175.873734,175.633255 173.674515,170.550476 173.987488,164.659943 
	C174.146225,161.672394 173.662003,158.554276 174.352478,155.709763 
	C176.294357,147.709976 185.850494,143.443802 194.600632,146.333115 
	C201.501343,148.611740 204.731537,156.538040 201.657623,164.713776 
M188.504776,157.999588 
	C190.188828,157.888916 191.872879,157.778244 193.931870,157.642944 
	C189.991730,151.809509 186.652130,151.861221 183.330948,157.571518 
	C184.908249,157.726562 186.294434,157.862823 188.504776,157.999588 
z"/>
<path fill="#464646" opacity="1.000000" stroke="none" 
	d="
M219.951965,118.089111 
	C221.530273,119.455101 223.872345,121.055489 223.652649,122.134094 
	C223.287445,123.927132 221.595673,125.998047 219.904221,126.875153 
	C213.589310,130.149796 206.766891,130.434601 201.038467,126.171906 
	C195.397034,121.973930 194.331772,115.317337 195.324005,108.591270 
	C197.286530,95.287926 208.000687,93.356041 216.585220,96.059021 
	C221.781555,97.695175 226.475922,106.168678 224.707626,111.380127 
	C224.168777,112.968208 221.504089,114.650108 219.671890,114.826981 
	C214.742874,115.302811 209.737701,114.989548 204.690338,114.989548 
	C205.556152,120.061493 209.043808,122.147964 213.628632,120.601578 
	C215.658783,119.916840 217.588943,118.935646 219.951965,118.089111 
M213.308090,103.907059 
	C209.471710,102.205719 206.719009,102.981903 204.731903,107.614792 
	C208.814423,107.614792 212.105850,107.614792 216.131912,107.614792 
	C215.101273,106.144211 214.491699,105.274437 213.308090,103.907059 
z"/>
<path fill="#464646" opacity="1.000000" stroke="none" 
	d="
M129.482971,155.074341 
	C129.358032,160.837921 130.060806,166.571808 128.446777,171.555374 
	C126.237144,178.378006 119.586372,180.414368 109.825768,178.936432 
	C105.286140,178.249023 101.197731,173.298538 99.958626,167.720825 
	C98.641121,161.790192 99.272308,156.248291 102.438179,151.116562 
	C107.385788,143.096756 126.902054,143.907730 129.482971,155.074341 
M108.167824,164.090408 
	C108.529114,165.187195 108.579453,166.604385 109.313644,167.316956 
	C111.074394,169.025833 113.326897,171.778503 115.065132,171.562973 
	C117.181137,171.300583 120.003769,168.741089 120.653778,166.606674 
	C121.533989,163.716324 121.292839,160.053574 120.267120,157.172775 
	C119.636024,155.400299 116.743279,153.685257 114.678116,153.422745 
	C113.194618,153.234177 110.871330,155.159378 109.883080,156.741501 
	C108.731316,158.585419 108.625748,161.082840 108.167824,164.090408 
z"/>
<path fill="#464646" opacity="1.000000" stroke="none" 
	d="
M150.824493,81.000008 
	C155.070984,81.008720 160.049835,80.148125 160.237045,85.469460 
	C160.438766,91.203682 155.198181,90.077637 151.630722,89.912201 
	C147.727402,89.731186 146.865616,91.365364 146.937012,94.905067 
	C147.124680,104.208405 147.086319,113.519493 146.952927,122.824844 
	C146.879730,127.931572 143.578583,130.388718 140.202682,127.874100 
	C138.936615,126.931038 138.134003,124.610443 138.097717,122.897179 
	C137.897141,113.427971 137.874191,103.949928 138.060638,94.480225 
	C138.129898,90.962029 136.867645,89.633591 133.441956,89.972588 
	C131.797379,90.135330 129.839310,90.518745 128.528687,89.834305 
	C126.778152,88.920128 124.320290,87.022728 124.369438,85.625069 
	C124.423965,84.074387 126.784737,81.601700 128.450714,81.312447 
	C132.327698,80.639320 136.390442,81.024803 140.378036,81.003616 
	C143.701965,80.985954 147.026047,81.000000 150.824493,81.000008 
z"/>
<path fill="#464646" opacity="1.000000" stroke="none" 
	d="
M207.000000,161.009216 
	C207.006088,157.016998 207.010635,153.521378 207.018707,150.025757 
	C207.026688,146.567322 209.228714,146.046707 212.044312,146.161865 
	C214.365753,146.256805 216.695755,146.196533 219.020508,146.142548 
	C221.762405,146.078842 225.078842,145.034546 225.775681,149.110306 
	C226.359131,152.522842 224.157272,153.577744 221.078110,154.106720 
	C216.817719,154.838654 215.216095,158.130615 215.048508,162.081299 
	C214.872284,166.235611 214.903183,170.405151 215.017822,174.563217 
	C215.100739,177.570694 213.543671,178.746948 210.830627,178.936050 
	C207.575165,179.162933 206.957657,177.172562 206.992935,174.489441 
	C207.049805,170.162292 207.003021,165.833771 207.000000,161.009216 
z"/>
<path fill="#000000" opacity="1.000000" stroke="none" 
	d="
M379.194061,136.001282 
	C385.500122,136.005890 391.335815,135.818527 397.153168,136.064331 
	C404.862946,136.390106 409.664215,141.462036 409.988922,149.168411 
	C410.301636,156.589569 406.195190,162.084641 398.705414,162.952545 
	C391.649841,163.770126 384.488678,163.815887 377.373138,163.831573 
	C376.259705,163.834045 374.220459,161.909042 374.175537,160.811203 
	C373.883026,153.663696 374.103760,146.497177 373.988098,139.339584 
	C373.928802,135.671371 376.368286,136.013596 379.194061,136.001282 
z"/>
<path fill="#000000" opacity="1.000000" stroke="none" 
	d="
M394.680450,120.973068 
	C388.824768,121.326050 383.390411,121.639664 377.959198,122.000679 
	C375.365479,122.173088 373.910553,121.391731 373.975952,118.424400 
	C374.107544,112.452744 373.910919,106.472679 374.108612,100.504662 
	C374.146759,99.353088 375.393829,97.246254 376.040619,97.262634 
	C383.274292,97.445801 390.611481,97.331604 397.689758,98.593414 
	C402.827698,99.509331 405.980774,104.701668 405.914215,109.097122 
	C405.829834,114.667320 401.886353,118.992004 394.680450,120.973068 
z"/>
<path fill="#000000" opacity="1.000000" stroke="none" 
	d="
M468.883728,112.113861 
	C470.598297,108.843300 471.277832,111.544487 471.644409,112.412422 
	C474.968475,120.282715 478.151825,128.212448 481.584290,136.634872 
	C473.882507,136.634872 466.757721,136.634872 458.730713,136.634872 
	C462.244049,128.186920 465.515076,120.321640 468.883728,112.113861 
z"/>
<path fill="#000000" opacity="1.000000" stroke="none" 
	d="
M88.027992,144.749115 
	C87.282303,147.260620 86.909683,150.856491 85.565544,151.266373 
	C82.582352,152.176071 77.954063,152.742004 76.170197,151.094498 
	C74.431389,149.488602 75.121635,144.929245 75.396088,141.722244 
	C75.455528,141.027679 78.258667,140.214340 79.851646,140.076874 
	C83.362823,139.773941 86.472153,140.674149 88.027992,144.749115 
z"/>
<path fill="#000000" opacity="1.000000" stroke="none" 
	d="
M188.092682,157.999344 
	C186.294434,157.862823 184.908249,157.726562 183.330948,157.571518 
	C186.652130,151.861221 189.991730,151.809509 193.931870,157.642944 
	C191.872879,157.778244 190.188828,157.888916 188.092682,157.999344 
z"/>
<path fill="#000000" opacity="1.000000" stroke="none" 
	d="
M213.595093,104.155853 
	C214.491699,105.274437 215.101273,106.144211 216.131912,107.614792 
	C212.105850,107.614792 208.814423,107.614792 204.731903,107.614792 
	C206.719009,102.981903 209.471710,102.205719 213.595093,104.155853 
z"/>
<path fill="#000000" opacity="1.000000" stroke="none" 
	d="
M108.117020,163.693542 
	C108.625748,161.082840 108.731316,158.585419 109.883080,156.741501 
	C110.871330,155.159378 113.194618,153.234177 114.678116,153.422745 
	C116.743279,153.685257 119.636024,155.400299 120.267120,157.172775 
	C121.292839,160.053574 121.533989,163.716324 120.653778,166.606674 
	C120.003769,168.741089 117.181137,171.300583 115.065132,171.562973 
	C113.326897,171.778503 111.074394,169.025833 109.313644,167.316956 
	C108.579453,166.604385 108.529114,165.187195 108.117020,163.693542 
z"/>
</svg>